<svg width="40" height="40" viewBox="0 0 40 40" fill="none" xmlns="http://www.w3.org/2000/svg">
<circle cx="20" cy="20" r="20" fill="#DDC261"/>
<path d="M29 27.7499H11C10.59 27.7499 10.25 27.4099 10.25 26.9999C10.25 26.5899 10.59 26.2499 11 26.2499H29C29.41 26.2499 29.75 26.5899 29.75 26.9999C29.75 27.4099 29.41 27.7499 29 27.7499Z" fill="white"/>
<path d="M28.75 14.4999H10.75C10.34 14.4999 10 14.1599 10 13.7499C10 13.3399 10.34 12.9999 10.75 12.9999H28.75C29.16 12.9999 29.5 13.3399 29.5 13.7499C29.5 14.1599 29.16 14.4999 28.75 14.4999Z" fill="white"/>
<path d="M11 24.5385L11 13.4615C11 13.2092 11.34 13 11.75 13C12.16 13 12.5 13.2092 12.5 13.4615L12.5 24.5385C12.5 24.7908 12.16 25 11.75 25C11.34 25 11 24.7908 11 24.5385Z" fill="white"/>
<path d="M15 24.5385L15 13.4615C15 13.2092 15.34 13 15.75 13C16.16 13 16.5 13.2092 16.5 13.4615L16.5 24.5385C16.5 24.7908 16.16 25 15.75 25C15.34 25 15 24.7908 15 24.5385Z" fill="white"/>
<path d="M19 24.5385L19 13.4615C19 13.2092 19.34 13 19.75 13C20.16 13 20.5 13.2092 20.5 13.4615L20.5 24.5385C20.5 24.7908 20.16 25 19.75 25C19.34 25 19 24.7908 19 24.5385Z" fill="white"/>
<path d="M23 24.5385L23 13.4615C23 13.2092 23.34 13 23.75 13C24.16 13 24.5 13.2092 24.5 13.4615L24.5 24.5385C24.5 24.7908 24.16 25 23.75 25C23.34 25 23 24.7908 23 24.5385Z" fill="white"/>
<path d="M27 24.5385L27 13.4615C27 13.2092 27.34 13 27.75 13C28.16 13 28.5 13.2092 28.5 13.4615L28.5 24.5385C28.5 24.7908 28.16 25 27.75 25C27.34 25 27 24.7908 27 24.5385Z" fill="white"/>
</svg>
