<svg width="40" height="40" viewBox="0 0 40 40" fill="none" xmlns="http://www.w3.org/2000/svg">
<circle cx="20" cy="20" r="20" fill="#DDC261"/>
<circle cx="20.3135" cy="10" r="4" fill="white"/>
<mask id="path-3-inside-1_379_14644" fill="white">
<path d="M26.7712 27.7221C26.067 28.6851 25.1564 29.4784 24.106 30.0439C23.0556 30.6095 21.892 30.9329 20.7004 30.9906C19.5089 31.0483 18.3195 30.8388 17.2194 30.3774C16.1192 29.916 15.1362 29.2144 14.3423 28.324C13.5484 27.4336 12.9637 26.3769 12.6309 25.2312C12.2982 24.0856 12.2259 22.8801 12.4193 21.7029C12.6128 20.5257 13.067 19.4067 13.7488 18.4278C14.4306 17.4488 15.3227 16.6348 16.3598 16.0452L17.4036 17.8813C16.6403 18.3152 15.9837 18.9143 15.4819 19.6348C14.9801 20.3553 14.6457 21.1789 14.5034 22.0453C14.361 22.9117 14.4142 23.799 14.6591 24.6422C14.904 25.4854 15.3344 26.2631 15.9187 26.9185C16.503 27.5738 17.2265 28.0902 18.0362 28.4298C18.8459 28.7694 19.7213 28.9236 20.5983 28.8811C21.4753 28.8386 22.3317 28.6006 23.1048 28.1843C23.8779 27.7681 24.5481 27.1842 25.0663 26.4755L26.7712 27.7221Z"/>
</mask>
<path d="M26.7712 27.7221C26.067 28.6851 25.1564 29.4784 24.106 30.0439C23.0556 30.6095 21.892 30.9329 20.7004 30.9906C19.5089 31.0483 18.3195 30.8388 17.2194 30.3774C16.1192 29.916 15.1362 29.2144 14.3423 28.324C13.5484 27.4336 12.9637 26.3769 12.6309 25.2312C12.2982 24.0856 12.2259 22.8801 12.4193 21.7029C12.6128 20.5257 13.067 19.4067 13.7488 18.4278C14.4306 17.4488 15.3227 16.6348 16.3598 16.0452L17.4036 17.8813C16.6403 18.3152 15.9837 18.9143 15.4819 19.6348C14.9801 20.3553 14.6457 21.1789 14.5034 22.0453C14.361 22.9117 14.4142 23.799 14.6591 24.6422C14.904 25.4854 15.3344 26.2631 15.9187 26.9185C16.503 27.5738 17.2265 28.0902 18.0362 28.4298C18.8459 28.7694 19.7213 28.9236 20.5983 28.8811C21.4753 28.8386 22.3317 28.6006 23.1048 28.1843C23.8779 27.7681 24.5481 27.1842 25.0663 26.4755L26.7712 27.7221Z" stroke="white" stroke-width="4" mask="url(#path-3-inside-1_379_14644)"/>
<rect x="19.3135" y="14" width="2" height="8" fill="white"/>
<path d="M25.3135 23.2252L26.8135 22L31.7952 28.3231L30.2144 29.5483L25.3135 23.2252Z" fill="white"/>
<path d="M26.8135 22L27.3135 24L19.3135 24L19.3135 22L26.8135 22Z" fill="white"/>
</svg>
