<svg width="40" height="40" viewBox="0 0 40 40" fill="none" xmlns="http://www.w3.org/2000/svg">
<circle cx="20" cy="20" r="20" fill="#DDC261"/>
<path d="M26.5 30.75C24.16 30.75 22.25 28.84 22.25 26.5V26C22.25 25.59 22.59 25.25 23 25.25C23.41 25.25 23.75 25.59 23.75 26V26.5C23.75 28.02 24.98 29.25 26.5 29.25C28.02 29.25 29.25 28.02 29.25 26.5C29.25 24.98 28.02 23.75 26.5 23.75H10C9.59 23.75 9.25 23.41 9.25 23C9.25 22.59 9.59 22.25 10 22.25H26.5C28.84 22.25 30.75 24.16 30.75 26.5C30.75 28.84 28.84 30.75 26.5 30.75Z" fill="white"/>
<path d="M26.5 20.75H10C9.59 20.75 9.25 20.41 9.25 20C9.25 19.59 9.59 19.25 10 19.25H26.5C28.02 19.25 29.25 18.02 29.25 16.5C29.25 14.98 28.02 13.75 26.5 13.75C24.98 13.75 23.75 14.98 23.75 16.5V17C23.75 17.41 23.41 17.75 23 17.75C22.59 17.75 22.25 17.41 22.25 17V16.5C22.25 14.16 24.16 12.25 26.5 12.25C28.84 12.25 30.75 14.16 30.75 16.5C30.75 18.84 28.84 20.75 26.5 20.75Z" fill="white"/>
<path d="M17.31 17.75H10C9.59 17.75 9.25 17.41 9.25 17C9.25 16.59 9.59 16.25 10 16.25H17.31C18.38 16.25 19.25 15.38 19.25 14.31C19.25 13.24 18.38 12.37 17.31 12.37C16.24 12.37 15.37 13.24 15.37 14.31V14.69C15.37 15.1 15.03 15.44 14.62 15.44C14.21 15.44 13.87 15.11 13.87 14.69V14.31C13.87 12.41 15.41 10.87 17.31 10.87C19.21 10.87 20.75 12.41 20.75 14.31C20.75 16.21 19.21 17.75 17.31 17.75Z" fill="white"/>
</svg>
