<svg width="40" height="40" viewBox="0 0 40 40" fill="none" xmlns="http://www.w3.org/2000/svg">
<circle cx="20" cy="20" r="20" fill="#DDC261"/>
<path d="M26.4802 20.25C26.7602 20.25 27.0002 20.01 26.9802 19.73C26.7102 16.1 23.6902 13.25 20.0002 13.25C16.3102 13.25 13.2902 16.1 13.0202 19.73C13.0002 20.01 13.2402 20.25 13.5202 20.25H26.4802Z" fill="white"/>
<path d="M30 21H29.92C29.37 21 28.92 20.55 28.92 20C28.92 19.45 29.37 19 29.92 19C30.47 19 30.96 19.45 30.96 20C30.96 20.55 30.55 21 30 21ZM10.08 21H10C9.45 21 9 20.55 9 20C9 19.45 9.45 19 10 19C10.55 19 11.04 19.45 11.04 20C11.04 20.55 10.63 21 10.08 21ZM27.01 13.99C26.75 13.99 26.5 13.89 26.3 13.7C25.91 13.31 25.91 12.68 26.3 12.29L26.43 12.16C26.82 11.77 27.45 11.77 27.84 12.16C28.23 12.55 28.23 13.18 27.84 13.57L27.71 13.7C27.52 13.89 27.27 13.99 27.01 13.99ZM12.99 13.99C12.73 13.99 12.48 13.89 12.28 13.7L12.15 13.56C11.76 13.17 11.76 12.54 12.15 12.15C12.54 11.76 13.17 11.76 13.56 12.15L13.69 12.28C14.08 12.67 14.08 13.3 13.69 13.69C13.5 13.89 13.24 13.99 12.99 13.99ZM20 11.04C19.45 11.04 19 10.63 19 10.08V10C19 9.45 19.45 9 20 9C20.55 9 21 9.45 21 10C21 10.55 20.55 11.04 20 11.04Z" fill="white"/>
<path d="M28 23.75H12C11.59 23.75 11.25 23.41 11.25 23C11.25 22.59 11.59 22.25 12 22.25H28C28.41 22.25 28.75 22.59 28.75 23C28.75 23.41 28.41 23.75 28 23.75Z" fill="white"/>
<path d="M26 26.75H14C13.59 26.75 13.25 26.41 13.25 26C13.25 25.59 13.59 25.25 14 25.25H26C26.41 25.25 26.75 25.59 26.75 26C26.75 26.41 26.41 26.75 26 26.75Z" fill="white"/>
<path d="M23 29.75H17C16.59 29.75 16.25 29.41 16.25 29C16.25 28.59 16.59 28.25 17 28.25H23C23.41 28.25 23.75 28.59 23.75 29C23.75 29.41 23.41 29.75 23 29.75Z" fill="white"/>
</svg>
