<svg width="40" height="40" viewBox="0 0 40 40" fill="none" xmlns="http://www.w3.org/2000/svg">
<circle cx="20" cy="20" r="20" fill="#DDC261"/>
<path d="M27.0899 20.59C26.9299 20.59 26.7699 20.54 26.6299 20.43C22.5999 17.32 17.3899 17.32 13.3599 20.43C13.0299 20.68 12.5599 20.62 12.3099 20.3C12.0599 19.97 12.1199 19.5 12.4399 19.25C17.0299 15.7 22.9599 15.7 27.5399 19.25C27.8699 19.5 27.9299 19.97 27.6699 20.3C27.5399 20.49 27.3199 20.59 27.0899 20.59Z" fill="white"/>
<path d="M30 17.11C29.84 17.11 29.68 17.06 29.54 16.95C23.74 12.47 16.25 12.47 10.46 16.95C10.13 17.2 9.66001 17.14 9.41001 16.82C9.15001 16.5 9.21001 16.02 9.54001 15.77C15.89 10.86 24.1 10.86 30.46 15.77C30.79 16.02 30.85 16.49 30.59 16.82C30.45 17.01 30.22 17.11 30 17.11Z" fill="white"/>
<path d="M25.2101 24.24C25.0501 24.24 24.8901 24.19 24.7501 24.08C21.8701 21.85 18.1401 21.85 15.2501 24.08C14.9201 24.33 14.4501 24.27 14.2001 23.95C13.9501 23.62 14.0101 23.15 14.3301 22.9C17.7701 20.24 22.2201 20.24 25.6601 22.9C25.9901 23.15 26.0501 23.62 25.7901 23.95C25.6501 24.14 25.4301 24.24 25.2101 24.24Z" fill="white"/>
<path d="M22.6002 27.9C22.4402 27.9 22.2802 27.85 22.1402 27.74C20.8402 26.73 19.1502 26.73 17.8502 27.74C17.5202 27.99 17.0502 27.93 16.8002 27.61C16.5502 27.28 16.6102 26.81 16.9302 26.56C18.7902 25.12 21.1902 25.12 23.0502 26.56C23.3802 26.81 23.4402 27.28 23.1802 27.61C23.0502 27.79 22.8302 27.9 22.6002 27.9Z" fill="white"/>
</svg>
