<svg width="64" height="64" viewBox="0 0 64 64" fill="none" xmlns="http://www.w3.org/2000/svg">
<rect width="64" height="64" rx="10" fill="#DDC261"/>
<path d="M5.23368 21.9716H9.1819C9.7864 21.9834 10.3793 21.8046 10.8763 21.4606C11.347 21.118 11.7303 20.6694 11.9952 20.1512C12.2624 19.6158 12.3994 19.0249 12.3948 18.4266C12.3944 17.9897 12.3131 17.5566 12.155 17.1492C11.9901 16.7372 11.7518 16.3585 11.4517 16.0314C11.1619 15.6948 10.8089 15.4181 10.4127 15.217C10.0016 15.0101 9.54629 14.906 9.08599 14.9136H4.41846V26.2511H5.23368V21.9716ZM5.23368 15.6481H9.05402C9.50409 15.6452 9.94445 15.7788 10.3168 16.0314C10.6915 16.295 11.0028 16.6386 11.2279 17.0374C11.4513 17.4663 11.5666 17.9432 11.5636 18.4266C11.5654 18.8944 11.4673 19.3571 11.2759 19.7839C11.0967 20.1979 10.8096 20.5563 10.4447 20.8219C10.0688 21.0935 9.61371 21.2338 9.14993 21.2211H5.23368V15.6481Z" fill="white"/>
<path d="M14.9044 21.0614C15.0882 20.3724 15.4953 19.7636 16.0621 19.3302C16.629 18.8968 17.3236 18.6633 18.0374 18.6662V17.9156H17.5419C16.9864 17.9733 16.4592 18.1895 16.0233 18.5384C15.5321 18.9205 15.1378 19.4129 14.8724 19.9756V17.9636H14.1052V26.2511H14.9044V21.0614Z" fill="white"/>
<path d="M20.3552 14.5942H19.556V16.0633H20.3552V14.5942Z" fill="white"/>
<path d="M20.3552 17.9476H19.556V26.2511H20.3552V17.9476Z" fill="white"/>
<path d="M23.664 21.1253C23.8071 20.6424 24.0524 20.1958 24.3833 19.8159C24.7144 19.4383 25.1163 19.1291 25.5662 18.9057C25.9983 18.6899 26.4738 18.5752 26.9569 18.5704C27.6122 18.5704 28.0918 18.8099 28.3955 19.3049C28.6992 19.7999 28.859 20.5824 28.859 21.6363V26.2511H29.6583V21.4926C29.6608 20.9735 29.618 20.4552 29.5304 19.9436C29.4711 19.5338 29.3239 19.1416 29.0988 18.7939C28.909 18.4926 28.6448 18.2452 28.3316 18.0753C27.9729 17.9038 27.578 17.8216 27.1807 17.8358C26.6937 17.8379 26.2114 17.9299 25.758 18.1073C25.3049 18.2821 24.8837 18.5303 24.5112 18.8418C24.1484 19.1518 23.845 19.5251 23.6161 19.9436V17.9636H22.8648V26.2511H23.664V21.1253Z" fill="white"/>
<path d="M33.9901 26.0755C34.4982 26.3009 35.0487 26.4152 35.6046 26.4108C36.103 26.4211 36.5981 26.3287 37.0592 26.1393C37.5033 25.9832 37.9111 25.7387 38.258 25.4208C38.5847 25.1437 38.8328 24.7858 38.9774 24.3828L38.1941 24.1593C38.0871 24.4555 37.8987 24.7155 37.6506 24.9098C37.3666 25.1513 37.0419 25.3406 36.6915 25.4687C36.3361 25.6131 35.9564 25.689 35.5726 25.6922C34.9889 25.6957 34.4168 25.5292 33.9262 25.2132C33.4204 24.863 33.0076 24.395 32.7235 23.8497C32.4395 23.3044 32.2926 22.6981 32.2958 22.0834C32.2869 21.4554 32.4352 20.8351 32.7273 20.279C33.0039 19.762 33.4119 19.3269 33.9102 19.0175C34.4044 18.7112 34.9751 18.5506 35.5566 18.5544C36.0774 18.5484 36.5904 18.6807 37.0432 18.9376C37.493 19.1895 37.8596 19.5668 38.0982 20.0235L38.8815 19.768C38.5971 19.1787 38.1472 18.6849 37.5867 18.3468C36.9551 18.0009 36.2444 17.8249 35.5242 17.8361C34.804 17.8473 34.0991 18.0453 33.4786 18.4107C32.8667 18.7843 32.3649 19.3133 32.024 19.9436C31.6649 20.5989 31.4831 21.3364 31.4965 22.0834C31.4908 22.6564 31.5939 23.2254 31.8002 23.7601C32.0088 24.2666 32.3065 24.7317 32.6794 25.1333C33.0526 25.5275 33.4974 25.8473 33.9901 26.0755Z" fill="white"/>
<path d="M20.8667 35.7682C21.2625 35.4315 21.5791 35.0117 21.7938 34.5387C22.0179 34.0419 22.1323 33.5027 22.1295 32.9578C22.1306 32.5207 22.0492 32.0874 21.8897 31.6803C21.7207 31.2692 21.4888 30.8867 21.2024 30.5466C20.9119 30.2148 20.5589 29.9435 20.1634 29.7482C19.7472 29.5394 19.2863 29.4352 18.8207 29.4448H14.1052V35.7523H4.41846V36.5028H14.1052V40.7823H14.9204V36.5028H18.5969L21.3462 40.7823H22.2893L19.4601 36.375C19.9752 36.3035 20.4613 36.0938 20.8667 35.7682ZM14.9204 35.7523V30.1793H18.7887C19.2441 30.1741 19.6902 30.3078 20.0675 30.5626C20.4392 30.836 20.7496 31.1841 20.9786 31.5845C21.2019 32.0077 21.3172 32.4794 21.3143 32.9578C21.3161 33.4255 21.218 33.8883 21.0266 34.3151C20.8315 34.7239 20.5409 35.0799 20.1794 35.3531C19.8068 35.6193 19.3586 35.7592 18.9006 35.7523H14.9204Z" fill="white"/>
<path d="M29.5624 32.9578C28.9396 32.5552 28.2099 32.3493 27.4684 32.367C26.7352 32.358 26.0145 32.5573 25.3904 32.9418C24.7822 33.3201 24.2814 33.8479 23.9358 34.4748C23.5801 35.1314 23.3985 35.868 23.4083 36.6146C23.4093 37.1833 23.5177 37.7467 23.728 38.2753C23.9268 38.7879 24.2195 39.259 24.5911 39.6645C24.9592 40.0534 25.3988 40.3679 25.8859 40.5907C26.3965 40.8273 26.9535 40.9473 27.5163 40.942C28.019 40.9414 28.5173 40.8494 28.9869 40.6705C29.4312 40.5046 29.8425 40.2613 30.2018 39.9519C30.5229 39.6567 30.7788 39.2978 30.953 38.898L30.2497 38.7064C30.0281 39.1963 29.6519 39.6001 29.1787 39.8561C28.6835 40.1444 28.1215 40.2985 27.5483 40.3032C26.9886 40.3103 26.4389 40.1549 25.9658 39.8561C25.4724 39.5632 25.0602 39.1515 24.767 38.6585C24.4611 38.1432 24.2805 37.5635 24.2395 36.9659H31.5285C31.5425 36.9139 31.5479 36.8599 31.5445 36.8062V36.6146C31.5524 35.8784 31.3707 35.1526 31.017 34.5067C30.6668 33.8789 30.1672 33.3469 29.5624 32.9578ZM24.2075 36.3431C24.2433 35.7366 24.4184 35.1466 24.719 34.6185C25.0064 34.1402 25.4071 33.7399 25.8859 33.4528C26.3691 33.1655 26.9221 33.0164 27.4844 33.0217C28.0517 33.0167 28.6097 33.1657 29.0988 33.4528C29.5814 33.735 29.9832 34.1364 30.2657 34.6185C30.5805 35.1405 30.7565 35.7341 30.7772 36.3431H24.2075Z" fill="white"/>
<path d="M37.6027 36.7104C37.0536 36.5119 36.4932 36.3466 35.9243 36.2153L34.7734 35.864C34.5092 35.7773 34.2723 35.6232 34.086 35.4169C33.9149 35.2056 33.8293 34.9378 33.8463 34.6664C33.8318 34.3187 33.9456 33.9778 34.166 33.7083C34.3813 33.4614 34.665 33.2836 34.9812 33.1973C35.3329 33.0875 35.6997 33.0337 36.0681 33.0376C36.5477 33.0311 37.0245 33.1123 37.4748 33.2772C37.8873 33.4284 38.2478 33.6943 38.5138 34.0437L38.9454 33.5327C38.6607 33.1565 38.2797 32.8641 37.8425 32.6863C37.3018 32.4586 36.7185 32.3497 36.1321 32.367C35.6093 32.3582 35.0893 32.4448 34.5976 32.6225C34.1625 32.7804 33.7804 33.057 33.4946 33.4209C33.209 33.8086 33.0626 34.2811 33.079 34.7622C33.0604 35.1301 33.1613 35.4942 33.3667 35.8002C33.5966 36.0849 33.9009 36.3004 34.2459 36.4229C34.7113 36.6032 35.1862 36.7578 35.6685 36.886C36.228 37.0138 36.6916 37.1415 37.0912 37.2693C37.4195 37.3655 37.7242 37.5286 37.9863 37.7483C38.0924 37.8577 38.1743 37.9881 38.2266 38.1312C38.2789 38.2743 38.3005 38.4267 38.29 38.5787C38.2953 38.8247 38.2379 39.0681 38.1233 39.286C38.0087 39.5038 37.8405 39.689 37.6347 39.8242C37.1094 40.1384 36.5042 40.2937 35.8923 40.2713C35.3653 40.2774 34.8427 40.1741 34.3578 39.9679C33.842 39.7387 33.3711 39.4197 32.9671 39.0258L32.5995 39.5847C33.0164 40.0273 33.5233 40.3757 34.086 40.6066C34.6723 40.8327 35.2959 40.9465 35.9243 40.942C36.8834 40.942 37.6346 40.7184 38.2101 40.2873C38.4889 40.082 38.7133 39.8117 38.8638 39.5C39.0142 39.1883 39.0861 38.8446 39.0733 38.4988C39.0974 38.0855 38.9598 37.679 38.6896 37.3651C38.3881 37.0591 38.0143 36.8339 37.6027 36.7104Z" fill="white"/>
<path d="M47.3374 33.6444C46.9741 33.246 46.5336 32.9255 46.0426 32.7023C45.5407 32.4753 44.9951 32.3608 44.4441 32.367C43.8933 32.3623 43.3481 32.4767 42.8457 32.7023C42.3546 32.9255 41.9141 33.246 41.5509 33.6444C41.1797 34.0442 40.8869 34.5101 40.6877 35.0177C40.2828 36.0714 40.2828 37.2375 40.6877 38.2912C40.887 38.8 41.1737 39.2702 41.5349 39.6805C41.903 40.0694 42.3426 40.3838 42.8297 40.6066C43.339 40.8282 43.8886 40.9425 44.4441 40.9425C44.9997 40.9425 45.5492 40.8282 46.0586 40.6066C46.5457 40.3838 46.9853 40.0694 47.3533 39.6805C47.7254 39.2782 48.0134 38.806 48.2005 38.2912C48.6054 37.2375 48.6054 36.0714 48.2005 35.0177C48.0137 34.5039 47.7195 34.0358 47.3374 33.6444ZM47.2574 38.4349C46.9771 38.9578 46.5705 39.4024 46.0746 39.7284C45.59 40.059 45.0149 40.232 44.4281 40.2234C43.8493 40.2275 43.2822 40.0608 42.7977 39.7443C42.2971 39.409 41.8876 38.9548 41.6059 38.4225C41.3241 37.8903 41.1789 37.2965 41.1832 36.6944C41.1793 36.0599 41.3331 35.4344 41.6308 34.874C41.9159 34.3546 42.3216 33.911 42.8137 33.5806C43.2938 33.253 43.8628 33.0803 44.4441 33.0856C45.023 33.0815 45.5901 33.2481 46.0746 33.5646C46.5705 33.8906 46.9771 34.3352 47.2574 34.858C47.5476 35.4092 47.6959 36.0238 47.689 36.6465C47.6939 37.269 47.5457 37.8831 47.2574 38.4349Z" fill="white"/>
<path d="M53.8591 32.4628C53.3036 32.5205 52.7764 32.7367 52.3406 33.0856C51.8493 33.4677 51.455 33.96 51.1897 34.5227V32.4947H50.4224V40.7823H51.2216V35.5926C51.4199 34.9011 51.8344 34.2912 52.4045 33.852C52.9689 33.4333 53.6517 33.2041 54.3546 33.1973V32.4468H53.8591V32.4628Z" fill="white"/>
<path d="M59.3419 39.8082C59.2046 39.8903 59.0601 39.9598 58.9103 40.0158C58.6389 40.1368 58.3442 40.1967 58.0471 40.1915C57.7924 40.1927 57.5447 40.1084 57.3438 39.9519C57.2432 39.8636 57.1616 39.7557 57.1039 39.635C57.0462 39.5142 57.0136 39.383 57.0081 39.2493V33.1494H58.9422V32.4947H57.0081V29.6524H56.2089V32.4947H55.042V33.1494H56.2089V39.4409C56.203 39.7283 56.2807 40.0112 56.4326 40.2553C56.5789 40.4829 56.7907 40.6611 57.0401 40.7663C57.2904 40.8826 57.5632 40.9426 57.8393 40.942C58.1153 40.9486 58.3905 40.9109 58.6545 40.8302C58.8648 40.7787 59.0685 40.7037 59.2619 40.6066L59.5816 40.4469L59.3419 39.8082Z" fill="white"/>
<path d="M25.8379 47.1856L25.5023 46.1636L25.1666 47.1856H24.0956L24.9588 47.8243L24.6391 48.8303L25.5023 48.2076L26.3654 48.8303L26.0457 47.8243L26.9089 47.1856H25.8379Z" fill="white"/>
<path d="M6.16079 47.1856L5.82511 46.1636L5.48943 47.1856H4.41846L5.28163 47.8243L4.96194 48.8303L5.82511 48.2076L6.68828 48.8303L6.36859 47.8243L7.23176 47.1856H6.16079Z" fill="white"/>
<path d="M11.0841 47.1856L10.7484 46.1636L10.4127 47.1856H9.34174L10.2049 47.8243L9.86924 48.8303L10.7484 48.2076L11.6116 48.8303L11.2759 47.8243L12.155 47.1856H11.0841Z" fill="white"/>
<path d="M15.9914 47.1856L15.6557 46.1636L15.32 47.1856H14.249L15.1282 47.8243L14.7925 48.8303L15.6557 48.2076L16.5349 48.8303L16.1992 47.8243L17.0623 47.1856H15.9914Z" fill="white"/>
<path d="M20.9147 47.1856L20.579 46.1636L20.2433 47.1856H19.1723L20.0355 47.8243L19.7158 48.8303L20.579 48.2076L21.4422 48.8303L21.1225 47.8243L21.9856 47.1856H20.9147Z" fill="white"/>
<path d="M35.2369 21.6842V22.4347H40.1442C40.2082 23.4391 40.6143 24.3914 41.2951 25.1333C41.6683 25.5275 42.1131 25.8473 42.6059 26.0755C43.119 26.3027 43.6751 26.417 44.2363 26.4108C44.7345 26.418 45.229 26.3257 45.6909 26.1393C46.1371 25.9773 46.549 25.7336 46.9058 25.4208C47.2434 25.1369 47.5067 24.7752 47.673 24.3669L46.9697 24.1752C46.7433 24.6619 46.3684 25.0644 45.8987 25.3249C45.4109 25.6153 44.8542 25.7698 44.2865 25.7726C43.7187 25.7754 43.1605 25.6264 42.6698 25.3409C42.1884 25.0381 41.7836 24.6282 41.487 24.1433C41.1809 23.6223 41.0003 23.0374 40.9595 22.4347H48.2485C48.2625 22.3827 48.2679 22.3287 48.2645 22.275V22.0834C48.2742 21.345 48.0866 20.6174 47.721 19.9756C47.382 19.3448 46.8867 18.8115 46.2824 18.4266C45.6588 18.0259 44.9297 17.8201 44.1884 17.8358C43.4552 17.8268 42.7345 18.0262 42.1104 18.4107C41.5011 18.7945 41.0004 19.3277 40.6558 19.9596C40.3616 20.4904 40.1871 21.079 40.1442 21.6842H35.2369ZM41.439 20.1033C41.721 19.6167 42.1226 19.21 42.6059 18.9217C43.0913 18.6398 43.6428 18.4913 44.2044 18.4913C44.7659 18.4913 45.3174 18.6398 45.8028 18.9217C46.2942 19.2049 46.7022 19.6125 46.9857 20.1033C47.2687 20.5859 47.4382 21.1265 47.4812 21.6842H40.9435C40.9865 21.1265 41.156 20.5859 41.439 20.1033Z" fill="white"/>
<path d="M35.6525 48.4311C35.656 48.6142 35.5999 48.7935 35.4927 48.9421C35.3968 49.0859 35.2644 49.2016 35.1091 49.2774C34.9486 49.3682 34.7659 49.4125 34.5816 49.4052H32.7753V45.5887H34.6135C34.7796 45.5853 34.9422 45.6357 35.0771 45.7325C35.2061 45.8281 35.3099 45.9537 35.3795 46.0984C35.4491 46.243 35.4825 46.4024 35.4767 46.5628C35.4783 46.7484 35.4285 46.9307 35.3329 47.0898C35.2409 47.2506 35.1013 47.3789 34.9332 47.457C35.1444 47.5098 35.3307 47.6339 35.4607 47.8083C35.5899 47.99 35.6572 48.2083 35.6525 48.4311ZM33.1429 45.9241V47.3293H34.4537C34.5727 47.3318 34.6897 47.2984 34.7894 47.2335C34.888 47.1659 34.9687 47.0754 35.0244 46.9696C35.0802 46.8639 35.1092 46.7462 35.1091 46.6267C35.1167 46.5044 35.089 46.3824 35.0291 46.2754C34.982 46.1697 34.904 46.0806 34.8054 46.0199C34.7115 45.9553 34.5997 45.9217 34.4857 45.9241H33.1429ZM35.2689 48.3672C35.2672 48.2407 35.2401 48.1158 35.189 48C35.1309 47.8967 35.0486 47.8091 34.9492 47.7445C34.8549 47.6672 34.7354 47.6274 34.6135 47.6327H33.1429V49.0858H34.5816C34.7034 49.0911 34.8229 49.0513 34.9173 48.974C35.0248 48.9145 35.1134 48.826 35.173 48.7185C35.236 48.6122 35.2692 48.4908 35.2689 48.3672Z" fill="white"/>
<path d="M42.8457 45.5887H43.1654L44.7478 49.4052H44.3482L43.8687 48.2235H42.1263L41.6468 49.4052H41.2472L42.8457 45.5887ZM43.7568 47.9201L43.0055 46.0359L42.2382 47.9201H43.7568Z" fill="white"/>
<path d="M50.6782 49.4052V45.5887H51.0618V49.0698H53.2677V49.4052H50.6782Z" fill="white"/>
<path d="M59.214 49.4052V45.5887H59.5816V49.4052H59.214Z" fill="white"/>
</svg>
